<svg xmlns="http://www.w3.org/2000/svg" width="1040" height="400" fill="none"  xmlns:v="https://vecta.io/nano"><style><![CDATA[.B{fill:#e6e6e8}.C{fill-rule:evenodd}.D{stroke-linecap:round}.E{fill:#fff}.F{fill:#02346e}.G{stroke-width:2}.H{stroke-miterlimit:10}.I{stroke:#fff}]]></style><path fill="#f8f8f9" d="M0 0h1040v400H0z"/><path d="M187.018 260.828s40.04-1.74 51.77 45.39-38.31 88.35-76.28 70.24c0 0 8.51.35 32.19-36.79 0 0 15.11-22.15 10.16-44.96-4.95-22.8-17.84-33.88-17.84-33.88zm-33.82 89.04s-3.25-.47-5.42-4.57c0 0-10.06 11.75-15.2 11.39 0 0 6.19 12.23 19.72 16.71-.01 0-10.19-11.37.9-23.53z" class="B"/><g stroke="#b9bdc2" class="G H"><path d="M115.848 211.748s-10.86 7.17-4.78 18.68 19.76 13.47 27.58 6.73 3.92-20.63-3.25-25.41-13.03-5.21-19.55 0z"/><path d="M133.658 218.258s2.82 1.09 2.39 4.13c0 0-8.04 1.74-11.08 10.64m-9.46 3.14s12.57 17.28 10.58 25.32-25.88 9.12-25.88 9.12" class="D"/><path d="M80.018 283.208s-1.09-12.81 13.9-13.68 17.81 18.9 11.51 25.19-25.63 6.73-25.41-11.51zm11.51 38.66s-3.04-9.77 6.52-16.07 34.53-21.5 42.35-14.77 4.13 14.77 0 19.33-20.39 18.68-27.14 22.59c-6.74 3.9-16.74 1.73-21.73-11.08zm25.41 27.58s-6.12-9.34 2.39-18.46 38.01-33.01 46.26-25.19 1.52 17.16-4.34 24.33-14.77 17.16-21.94 23.24-16.51 3.25-22.37-3.92zm31.71 18.46s-3.48-9.34 3.48-16.94c0 0 27.58-28.67 36.49-24.98 8.9 3.69 6.52 12.38 2.39 19.33s-17.81 25.63-27.37 30.62c-3.26 1.96-10.65 1.53-14.99-8.03z"/><path d="M105.428 294.718l3.15 4.6m39.2 45.98s2.37 3.91 5.42 4.57m41.5-10.19c16.94-27.37 14.55-52.13-6.95-77.97l-1.09-1.3c-21.25-25.11-45.41-41.27-45.41-41.27m-55.48 71.78s-3.91-7.82 0-14.99m38.94 30.13l-4.07-5.21s11.24-10.64 17.1-6.14m17.92 24.22l-5.16-4.89s5-6.03 10.86-5.05m21.82 30.69l-4.72-4.29s4.07-5.93 8.63-4.92" class="D"/></g><path d="M852.982 260.828s-40.04-1.74-51.77 45.39 38.31 88.35 76.28 70.24c0 0-8.51.35-32.19-36.79 0 0-15.11-22.15-10.16-44.96 4.95-22.8 17.84-33.88 17.84-33.88zm33.82 89.04s3.25-.47 5.42-4.57c0 0 10.06 11.75 15.2 11.39 0 0-6.19 12.23-19.72 16.71.01 0 10.19-11.37-.9-23.53z" class="B"/><g stroke="#b9bdc2" class="G H"><path d="M924.152 211.748s10.86 7.17 4.78 18.68-19.76 13.47-27.58 6.73-3.92-20.63 3.25-25.41 13.03-5.21 19.55 0z"/><path d="M906.342 218.258s-2.82 1.09-2.39 4.13c0 0 8.04 1.74 11.08 10.64m9.46 3.14s-12.57 17.28-10.58 25.32 25.88 9.12 25.88 9.12" class="D"/><path d="M959.982 283.208s1.09-12.81-13.9-13.68-17.81 18.9-11.51 25.19 25.63 6.73 25.41-11.51zm-11.51 38.66s3.04-9.77-6.52-16.07-34.53-21.5-42.35-14.77-4.13 14.77 0 19.33 20.39 18.68 27.14 22.59c6.74 3.9 16.74 1.73 21.73-11.08zm-25.41 27.58s6.12-9.34-2.39-18.46-38.01-33.01-46.26-25.19-1.52 17.16 4.34 24.33 14.77 17.16 21.94 23.24 16.51 3.25 22.37-3.92zm-31.71 18.46s3.48-9.34-3.48-16.94c0 0-27.58-28.67-36.49-24.98-8.9 3.69-6.52 12.38-2.39 19.33s17.81 25.63 27.37 30.62c3.26 1.96 10.65 1.53 14.99-8.03z"/><path d="M934.572 294.718l-3.15 4.6m-39.2 45.98s-2.37 3.91-5.42 4.57m-41.5-10.19c-16.94-27.37-14.55-52.13 6.95-77.97l1.09-1.3c21.25-25.11 45.41-41.27 45.41-41.27m55.48 71.78s3.91-7.82 0-14.99m-38.94 30.13l4.07-5.21s-11.24-10.64-17.1-6.14m-17.92 24.22l5.16-4.89s-5-6.03-10.86-5.05m-21.82 30.69l4.72-4.29s-4.07-5.93-8.63-4.92" class="D"/></g><path d="M426 152a8 8 0 0 1 8-8h194a8 8 0 0 1 8 8v124H426V152z" class="F"/><path d="M434 152H628V268H434V152Z" fill="#c2eaff"/><g class="E"><path d="M497 214h-6a9 9 0 0 0-9 9s4.5 2 12 2 12-2 12-2a9 9 0 0 0-9-9zm-10-12a7 7 0 1 1 14 0c0 3.866-3.134 8-7 8s-7-4.134-7-8z"/><path d="M534 199a4 4 0 1 0 0 8h42a4 4 0 1 0 0-8h-42zm0 14a4 4 0 1 0 0 8h32a4 4 0 1 0 0-8h-32z" class="C"/></g><path d="M434 152h194v10L484 268h-50V152z" fill="url(#C)" style="mix-blend-mode:overlay" opacity=".3"/><path d="M401 276.75a.75.75 0 0 1 .75-.75h258.5a.75.75 0 0 1 .75.75c0 6.213-5.037 11.25-11.25 11.25h-237.5c-6.213 0-11.25-5.037-11.25-11.25z" class="B"/><path d="M516 276h30a4 4 0 0 1-4 4h-22a4 4 0 0 1-4-4z" fill="#b9bdc2"/><path d="M537 84.012a8 8 0 0 1 3.215-6.412l59-44.03a8 8 0 0 1 9.57 0l59 44.03A8 8 0 0 1 671 84.012V156a8 8 0 0 1-8 8H545a8 8 0 0 1-8-8V84.012z" fill="#ffaa05"/><path d="M551 43a4 4 0 0 1 4-4h98a4 4 0 0 1 4 4v46l-53 33-53-33V43z" class="E"/><rect x="566" y="71" width="76" height="20" rx="10" class="B"/><g class="F"><path d="M581 81a3 3 0 1 1-6 0 3 3 0 1 1 6 0zm19.798 2.793a3 3 0 1 1-2.052-5.638l2.052 5.638zM592 78h-6v6h6v-6zm13 2.828L607.828 78l2.829 2.828-2.829 2.828L605 80.828zM618 84a3 3 0 1 0 0-6 3 3 0 1 0 0 6z" class="C"/><path d="M551 43a4 4 0 0 1 4-4h98a4 4 0 0 1 4 4v10H551V43z"/></g><mask id="A" mask-type="alpha" maskUnits="userSpaceOnUse" x="537" y="80" width="134" height="84"><path d="M537 82a2 2 0 0 1 2-2h130a2 2 0 0 1 2 2v74a8 8 0 0 1-8 8H545a8 8 0 0 1-8-8V82z" fill="#c4c4c4"/></mask><g mask="url(#A)"><path d="M537 80l134 84H537V80z" fill="#ffd480"/><path d="M671 80L537 164H671V80Z" fill="#ffe9bc"/></g><g fill="#66b03f"><path d="M430.946 87.665l12.583-6.137 4.384 8.988-1.404 6.247 5.787 2.741-1.403 6.248 5.787 2.74-1.403 6.248 5.787 2.74-3.661 8.461-8.922-2.324-17.535-35.951z"/><path d="M430.131 90.409C436.078 86.471 440 79.72 440 72.053c0-12.15-9.85-22-22-22a22.23 22.23 0 0 0-.793.014 22.16 22.16 0 0 1 2.496-1.423c10.92-5.326 24.091-.791 29.417 10.129s.792 24.091-10.129 29.418a21.92 21.92 0 0 1-8.86 2.218z" class="C"/></g><g fill="#8fda53"><path d="M411 90.053h14v10l-4 5 4 5-4 5 4 5-4 5 4 5-7 6-7-6v-40z"/><path d="M418 94.053c12.15 0 22-9.85 22-22s-9.85-22-22-22-22 9.85-22 22 9.85 22 22 22zm0-13a9 9 0 1 0 0-18 9 9 0 1 0 0 18z" class="C"/></g><path d="M680.208 263.31c-8.117 9.074-12.003 21.73-9.411 34.583m61.871-40.832a39.86 39.86 0 0 0-30.58-6.264 39.82 39.82 0 0 0-16.066 7.179m63.16 24.111c-1.591-7.89-5.403-14.765-10.653-20.105m11.464 28.813c.055-2.867-.199-5.784-.789-8.712m-78.386 15.806l.383 1.706m28.467 29.026c8.957-10.195 13.221-24.304 10.332-38.633m10.546 2.78l-.747-4.756.011-.004a10.02 10.02 0 0 0-11.8-7.84 10.02 10.02 0 0 0-7.84 11.801c.288 2.424 3.439 19.57-10.395 32.513m21.492 5.471c5.765-8.424 9.197-18.436 9.59-28.978m-30.15-16.331c-.817 2.937-.972 6.106-.328 9.3l.023-.005c1.896 9.403-1.752 18.635-8.69 24.318m42.622 9.055a64.71 64.71 0 0 0 5.264-41.275c-.709-3.449-6.509-19.098-23.562-15.66a19.93 19.93 0 0 0-11.397 6.781m8.694-16.415c-15.823 3.594-25.97 19.18-22.745 35.175l.015-.003c1.121 5.559-.985 11.02-5.026 14.444m62.794 7.795c2.878-10.795 3.384-22.4 1.026-34.093h-.005c-2.781-13.792-14.609-23.45-28.059-24.043" stroke="#02346e" class="D G H"/><path d="M331.225 227.998a11.43 11.43 0 0 0 11.428-11.428 11.43 11.43 0 0 0-11.428-11.429 11.43 11.43 0 0 0-11.428 11.429 11.43 11.43 0 0 0 11.428 11.428z" class="F"/><path d="M366.781 183.3c-9.099-9.102-21.67-14.729-35.556-14.729s-26.457 5.627-35.556 14.729m97.781-25.527C377.523 141.849 355.526 132 331.225 132s-46.298 9.849-62.225 25.773" stroke="#02346e" stroke-linecap="square" class="G H"/><path d="M539 316a5 5 0 0 1 5-5h40a5 5 0 1 1 0 10h-40a5 5 0 0 1-5-5z" class="B"/><circle cx="549" cy="316" r="10" fill="#8fda53"/><path d="M539 340a5 5 0 0 1 5-5h40a5 5 0 1 1 0 10h-40a5 5 0 0 1-5-5z" class="B"/><g class="F"><circle cx="579" cy="340" r="10"/><rect width="58" height="106" rx="4" transform="matrix(1 0 0 -1 713.099 222)"/></g><path d="M715 210a4 4 0 0 0 4 4h46a4 4 0 0 0 4-4v-82a4 4 0 0 0-4-4h-46a4 4 0 0 0-4 4v82z" class="B"/><path d="M715 164h54v10h-54v-10z" fill="#f1f2f2"/><g fill="#b9bdc2"><path d="M715 168h54v2h-54v-2z"/><path d="M742 179a10 10 0 1 0 0-20 10 10 0 1 0 0 20z"/></g><g class="C"><path d="M742 161.568c4.111 0 7.444 3.355 7.444 7.493s-3.333 7.493-7.444 7.493-7.444-3.355-7.444-7.493 3.333-7.493 7.444-7.493z" fill="#1a8cff"/><path d="M742 159.676c5.15 0 9.324 4.202 9.324 9.385s-4.174 9.385-9.324 9.385-9.324-4.202-9.324-9.385 4.174-9.385 9.324-9.385zm0 1.892c-4.111 0-7.444 3.355-7.444 7.493s3.333 7.493 7.444 7.493 7.444-3.355 7.444-7.493-3.333-7.493-7.444-7.493zm.075 1.892c3.056 0 5.565 2.525 5.565 5.677 0 3.076-2.509 5.6-5.565 5.6-3.131 0-5.64-2.524-5.64-5.6 0-3.152 2.509-5.677 5.64-5.677z" class="E"/><path d="M740.721 167.419v-1.903c0-.258.209-.466.467-.466h1.624c.257 0 .466.208.466.466v3.795a.31.31 0 0 1-.09.219l-.294.296c-.12.121-.12.317 0 .438l.294.295a.31.31 0 0 1 .09.219v1.903c0 .258-.209.467-.466.467h-1.624c-.258 0-.467-.209-.467-.467v-3.795a.31.31 0 0 1 .091-.219l.293-.295a.31.31 0 0 0 0-.438l-.293-.296a.31.31 0 0 1-.091-.219z" fill="#666"/></g><rect x="304" y="255" width="160" height="82.133" rx="6" fill="#66cbff"/><mask id="B" mask-type="alpha" maskUnits="userSpaceOnUse" x="304" y="255" width="161" height="83"><path fill="#034ea6" d="M304 255h160v82.133H304z"/></mask><g mask="url(#B)"><path d="M306.737 292.733c1.746-41.163 35.67-74 77.263-74 42.71 0 77.334 34.624 77.334 77.334S426.71 373.4 384 373.4c-40.872 0-74.338-31.708-77.143-71.867" class="I"/><path d="M330.219 293c1.59-28.323 25.061-50.8 53.781-50.8 21.548 0 40.141 12.652 48.755 30.933m-102.536 26c1.59 28.323 25.061 50.8 53.781 50.8 29.75 0 53.867-24.117 53.867-53.866 0-6.263-1.069-12.276-3.034-17.867" class="I"/><circle cx="384" cy="296.067" r="38.7" class="I"/><circle cx="384" cy="296.067" r="21.067" fill="#0572ec"/><path d="M426.267 278.6l14.417-6.083m8.65-3.65l-5.767 2.433m-15.433 24.633h14.333m15.933 0h-11.6m-18.933 18.134l16.933 7.066M316.667 267.8l4.133 1.743m20.534 8.657l-2.4-1.012m-1.2-.506l-13.067-5.509m-18.4 24.76h24.05m11.15 0h-3.716m4.383 17.334l-10.6 4.466m-10.6 4.467l7.95-3.35" class="D I"/><path d="M433.6 327.303v.764h-2.133v-.764l-.534-.356v1.386c0 .071.029.139.079.189s.117.078.188.078h2.667c.07 0 .138-.028.188-.078s.078-.118.078-.189v-1.386l-.533.356zm.533-.836l-1.6 1.066-1.6-1.066v-.267c0-.071.028-.138.078-.188s.118-.079.189-.079h2.667c.07 0 .138.029.188.079s.078.117.078.188v.267zm-77.142 5.503l-.79.79c-.154.154-.363.24-.581.241a.82.82 0 0 1-.58-.241c-.154-.154-.24-.362-.241-.58a.82.82 0 0 1 .241-.58l.859-.86c.092-.087.214-.135.34-.135s.248.048.34.135c.044.045.08.098.104.156s.036.121.036.184-.012.126-.036.184-.06.111-.104.156l-.791.79c-.026.026-.062.041-.099.041s-.072-.015-.099-.041-.04-.062-.04-.1a.14.14 0 0 1 .04-.099l.584-.584c.02-.019.035-.041.046-.065s.017-.051.018-.078-.005-.054-.015-.079-.025-.047-.044-.066-.042-.034-.066-.044a.21.21 0 0 0-.079-.015c-.027 0-.053.007-.078.018s-.046.026-.065.046l-.585.585a.54.54 0 1 0 .765.764l.79-.79a.88.88 0 1 0-1.245-1.245l-.858.859a1.22 1.22 0 0 0 .862 2.083c.324 0 .634-.129.863-.357l.79-.79c.036-.038.055-.088.054-.14a.2.2 0 0 0-.058-.137c-.037-.037-.087-.058-.138-.059s-.102.018-.14.054v-.001zm87.276-31.637c-.882 0-1.6.63-1.6 1.405s.718 1.404 1.6 1.404a1.82 1.82 0 0 0 .276-.021l.727.396c.019.011.041.016.064.016.035 0 .069-.014.094-.039s.039-.059.039-.094v-.744a1.3 1.3 0 0 0 .292-.419 1.32 1.32 0 0 0 .108-.499c0-.775-.718-1.405-1.6-1.405zm-.878-20.722l-.8-.8c-.05-.05-.118-.078-.188-.078h-1.334c-.071 0-.138.028-.188.078s-.078.118-.078.189v2.667c0 .07.028.138.078.188s.117.078.188.078h2.134c.07 0 .138-.028.188-.078s.078-.118.078-.188V279.8c0-.071-.028-.139-.078-.189zm-2.055 1.789v-2.133h.8v.8h.8v1.333h-1.6zm-117.867 19.2v1.867c0 .07.028.138.078.188s.118.078.189.078h.8v-1.066h1.066v1.066h.8c.071 0 .139-.028.189-.078s.078-.118.078-.188V300.6l-1.6-1.067-1.6 1.067zm18.133-16.533h-.266v-.534a.8.8 0 0 0-1.6 0v.534h-.267c-.071 0-.139.028-.189.078s-.078.118-.078.188v1.334c0 .07.028.138.078.188s.118.078.189.078h2.133c.071 0 .139-.028.189-.078s.078-.118.078-.188v-1.334c0-.07-.028-.138-.078-.188s-.118-.078-.189-.078zm-.8 0h-.533v-.534c0-.07.028-.138.078-.188s.118-.078.189-.078.138.028.188.078.078.118.078.188v.534zm-33.992-19.075c-.018-.02-.041-.035-.065-.046s-.051-.017-.078-.018a.19.19 0 0 0-.078.015.2.2 0 0 0-.111.111c-.01.024-.015.051-.014.078a.21.21 0 0 0 .017.078c.011.025.027.046.046.065l.534.533c.018.019.04.033.064.044s.051.015.077.015.052-.005.076-.015.047-.025.065-.044l1.334-1.333a.2.2 0 0 0 .053-.14c-.001-.052-.022-.101-.058-.138a.2.2 0 0 0-.138-.059c-.052 0-.102.019-.14.054l-1.192 1.192-.392-.392z" class="E"/><path d="M308.56 265.405a.26.26 0 0 0-.104 0c-.035.006-.067.02-.097.039a.27.27 0 0 0-.074.073.28.28 0 0 0-.04.096c-.042.207-.145.397-.295.545a1.07 1.07 0 0 1-.547.289c-.207.04-.422.018-.616-.064s-.36-.219-.477-.395a1.07 1.07 0 0 1 .006-1.185c.118-.175.285-.311.481-.391s.41-.099.616-.057c.07.014.142 0 .201-.039s.1-.1.114-.169a.27.27 0 0 0-.039-.201c-.039-.059-.1-.1-.169-.114a1.64 1.64 0 0 0-.32-.032 1.6 1.6 0 0 0-.855.248c-.256.162-.461.393-.59.666s-.18.579-.143.879a1.59 1.59 0 0 0 .349.819c.191.235.446.41.733.506a1.59 1.59 0 0 0 1.66-.41 1.6 1.6 0 0 0 .414-.788.26.26 0 0 0 0-.104.26.26 0 0 0-.039-.096c-.019-.03-.044-.055-.073-.074s-.062-.034-.096-.041zm32.545 42.22c-.443-.049-.858-.241-1.183-.547-.05-.05-.118-.078-.188-.078a.27.27 0 0 0-.189.078 2.05 2.05 0 0 1-1.182.547c-.064.009-.122.041-.164.089a.27.27 0 0 0-.065.175c0 .069.017 1.698 1.501 2.293a.27.27 0 0 0 .198 0c1.484-.595 1.501-2.224 1.501-2.293a.27.27 0 0 0-.229-.264zm-1.371 2.018a1.94 1.94 0 0 1-.72-.634 1.95 1.95 0 0 1-.329-.902c.382-.082.74-.247 1.049-.485.308.237.666.403 1.047.485a1.96 1.96 0 0 1-.33.9 1.95 1.95 0 0 1-.717.636zm90.933-23.71h2.666c.071 0 .139.028.189.078s.078.118.078.189v.533h-3.2v-.533c0-.071.028-.139.078-.189s.118-.078.189-.078h0zm-.267 1.334h.8v1.866h-.533c-.071 0-.139-.028-.189-.078s-.078-.118-.078-.188v-1.6zm1.333 0h1.867v1.6c0 .07-.028.138-.078.188s-.118.078-.189.078h-1.6v-1.866zm12.729-29.107c.039 0 .076-.011.109-.032a.2.2 0 0 0 .074-.086c.015-.035.021-.074.015-.112s-.022-.073-.048-.102c-.119-.135-.265-.243-.429-.317s-.341-.112-.521-.112-.357.038-.521.112-.31.182-.429.317a.19.19 0 0 0-.04.067c-.009.025-.013.052-.012.078s.008.053.02.077.028.045.048.062a.18.18 0 0 0 .068.04c.025.009.051.012.078.01a.2.2 0 0 0 .076-.021c.024-.012.045-.028.062-.048.081-.093.181-.167.293-.217a.88.88 0 0 1 .357-.077.86.86 0 0 1 .357.077c.112.05.212.124.293.217a.21.21 0 0 0 .068.05c.026.011.054.017.082.017z" class="E"/><path d="M443.663 259.067a.4.4 0 0 0 0-.8.4.4 0 0 0 0 .8zm-1.191-1.566a1.67 1.67 0 0 1 .545-.371c.204-.086.424-.13.645-.13s.442.044.646.13a1.67 1.67 0 0 1 .545.371c.018.02.04.036.064.047s.051.017.078.018a.19.19 0 0 0 .078-.014c.025-.009.048-.024.067-.043s.035-.041.045-.066a.19.19 0 0 0 .015-.078.21.21 0 0 0-.016-.078.2.2 0 0 0-.045-.065 2.07 2.07 0 0 0-.676-.46c-.253-.107-.525-.162-.801-.162a2.05 2.05 0 0 0-.8.162 2.06 2.06 0 0 0-.676.46c-.035.038-.054.088-.052.14a.2.2 0 0 0 .06.138c.037.036.087.056.139.057a.2.2 0 0 0 .139-.056z" class="E"/><path d="M342.067 269.933a.8.8 0 0 0 .8-.8v-.8a.8.8 0 0 0-1.365-.565c-.151.15-.235.353-.235.565v.8c0 .213.084.416.235.566a.8.8 0 0 0 .565.234zm1.333-1c-.053 0-.103.021-.141.059a.2.2 0 0 0-.059.141c0 .301-.119.589-.331.802a1.13 1.13 0 0 1-.802.332c-.301 0-.589-.12-.801-.332s-.332-.501-.332-.802c0-.053-.021-.104-.059-.141s-.088-.059-.141-.059a.2.2 0 0 0-.2.2c0 .407.161.797.449 1.085a1.53 1.53 0 0 0 1.084.449c.407 0 .797-.162 1.084-.449s.449-.678.449-1.085a.2.2 0 0 0-.058-.141c-.038-.038-.088-.059-.142-.059zm81.4 1.267a.8.8 0 1 0 0-1.6.8.8 0 0 0 0 1.6zm0 .267c-.9 0-1.333.561-1.333.888v.178c0 .071.028.139.078.189s.118.078.188.078h2.134c.071 0 .138-.028.188-.078s.078-.118.078-.189v-.178c0-.327-.433-.888-1.333-.888zM457.867 259H456.8c-.283 0-.554.112-.754.312a1.07 1.07 0 0 0-.312.755c0 .283.112.554.312.754s.471.312.754.312h1.067c.283 0 .554-.112.754-.312s.313-.471.313-.754a1.07 1.07 0 0 0-.313-.755c-.2-.2-.471-.312-.754-.312zm-1.067 1.6a.53.53 0 0 1-.296-.09c-.088-.058-.156-.142-.196-.239a.54.54 0 0 1-.031-.308c.02-.103.072-.199.146-.273a.53.53 0 0 1 .581-.116c.098.04.181.109.24.196a.54.54 0 0 1 .09.297c0 .141-.057.277-.157.377a.53.53 0 0 1-.377.156zm-142.133 50.933H313.6v1.334h1.067v-1.334zm1.6-1.333H315.2v2.667h1.067V310.2zm4.267 16.533a1.6 1.6 0 0 0-.877.262c-.26.17-.465.413-.59.698l.489.214c.083-.191.219-.353.393-.466s.377-.174.585-.174c.138 0 .276.028.403.082s.244.132.342.23l-.512.507 1.367.151v-1.504l-.473.468c-.147-.149-.323-.267-.517-.347a1.6 1.6 0 0 0-.61-.121zm0 2.667a1.04 1.04 0 0 1-.404-.082c-.128-.054-.244-.132-.341-.231l.511-.506-1.366-.151v1.503l.472-.467c.148.149.323.267.517.347a1.58 1.58 0 0 0 .611.12c.311 0 .616-.09.876-.261a1.6 1.6 0 0 0 .59-.699l-.488-.213a1.07 1.07 0 0 1-.394.466c-.174.114-.377.174-.584.174zm1.333-45.333H319.2c-.07 0-.138.028-.188.078s-.078.118-.078.188v1.867c0 .071.028.139.078.189s.118.078.188.078h1.067v.266h-.8v.534h2.133v-.534h-.8v-.266h1.067c.071 0 .139-.028.189-.078s.078-.118.078-.189v-1.867c0-.07-.028-.138-.078-.188s-.118-.078-.189-.078h0zm-.267 1.866h-2.133V284.6h2.133v1.333zm103.999 38.227a1.44 1.44 0 0 1-.09.516.85.85 0 0 1-.255.367c-.108.088-.243.135-.382.134a.48.48 0 0 1-.256-.07.4.4 0 0 1-.16-.183h-.032c-.064.081-.146.145-.239.189a.67.67 0 0 1-.299.064c-.1.005-.201-.011-.295-.047a.72.72 0 0 1-.251-.162.79.79 0 0 1-.2-.57c-.005-.124.015-.247.061-.362a.89.89 0 0 1 .202-.305.94.94 0 0 1 .317-.194.96.96 0 0 1 .368-.057 2.29 2.29 0 0 1 .37.033 2 2 0 0 1 .334.077l-.045.957c0 .181.05.272.149.272.083 0 .15-.061.199-.183.055-.153.081-.316.075-.478.004-.194-.041-.386-.131-.557-.083-.158-.212-.287-.369-.37-.168-.087-.354-.131-.543-.127-.239-.006-.476.05-.686.163-.194.107-.35.27-.448.468a1.53 1.53 0 0 0-.156.707c-.01.151.01.302.06.444s.127.274.229.385c.113.102.245.18.389.23a1.13 1.13 0 0 0 .447.059c.153-.001.306-.016.456-.046.167-.03.331-.075.49-.133v.376a2.37 2.37 0 0 1-.93.177c-.423.025-.839-.115-1.16-.392a1.42 1.42 0 0 1-.324-.499 1.43 1.43 0 0 1-.092-.589c-.004-.306.069-.608.212-.878.139-.259.349-.474.606-.618a1.78 1.78 0 0 1 .903-.224 1.63 1.63 0 0 1 .769.176 1.25 1.25 0 0 1 .522.501c.126.229.19.488.185.749zm-2.005.245c0 .275.113.413.337.413.051.003.103-.007.15-.028s.087-.055.118-.096a.79.79 0 0 0 .112-.404l.026-.433a1.06 1.06 0 0 0-.225-.021.46.46 0 0 0-.207.034.48.48 0 0 0-.174.118c-.096.117-.145.266-.137.417zm27.82-3.908l.307-.307-.378-.377-.306.307c-.114-.072-.239-.124-.37-.155v-.432h-.533v.432c-.131.031-.256.083-.37.155l-.306-.307-.377.377.306.307a1.18 1.18 0 0 0-.154.37h-.432v.533h.432a1.19 1.19 0 0 0 .154.37l-.306.306.377.377.306-.306a1.19 1.19 0 0 0 .37.154v.432h.533v-.432a1.19 1.19 0 0 0 .37-.154l.306.306.378-.377-.307-.306c.072-.114.124-.239.155-.37h.432v-.533h-.432c-.031-.131-.083-.257-.155-.37zm-1.013 1.17a.54.54 0 0 1-.297-.09.53.53 0 0 1-.227-.548c.021-.103.072-.198.146-.273s.17-.125.273-.146a.53.53 0 0 1 .638.523c0 .142-.056.277-.156.378a.53.53 0 0 1-.377.156z" fill="#0572ec"/><path d="M377.334 308.778h13.333v10.444a2 2 0 0 1-2 2h-9.333a2 2 0 0 1-2-2v-10.444z" fill="#0a2d4d"/><path d="M380.889 310.556h-1.778v8.888h1.778v-8.888zm8 0h-1.778v8.888h1.778v-8.888zm-7.111 0h1.778v7.111h-1.778v-7.111zm4.445 0h-1.778v7.111h1.778v-7.111z" fill="#ffd480" class="C"/><path d="M376.667 272.333a2 2 0 0 0-2 2v32.445a2 2 0 0 0 2 2h14.667a2 2 0 0 0 2-2v-32.445a2 2 0 0 0-2-2h-14.667zm7.333 8c1.228 0 2.223-.995 2.223-2.222s-.995-2.222-2.223-2.222-2.222.995-2.222 2.222.995 2.222 2.222 2.222z" class="C F"/><circle cx="384" cy="294.111" r="5.778" fill="#ffe9bc"/><path d="M384.245 293.768l.975-2.768h1.412l-2.379 5.854h-1.491l.683-1.604-1.667-4.246h1.44l1.027 2.764z" fill="#66b03f"/></g><defs><linearGradient id="C" x1="566" y1="152" x2="452" y2="273" gradientUnits="userSpaceOnUse"><stop stop-color="#fff"/><stop offset="1" stop-color="#fff" stop-opacity="0"/></linearGradient></defs></svg>